<svg xmlns="http://www.w3.org/2000/svg" xmlns:xlink="http://www.w3.org/1999/xlink" width="400" zoomAndPan="magnify" viewBox="0 0 300 225" height="300" preserveAspectRatio="xMidYMid meet" version="1.0"><defs><g/><clipPath id="ea1be7cd06"><path d="M 24.601562 106.726562 L 275.398438 106.726562 L 275.398438 136.027344 L 24.601562 136.027344 Z M 24.601562 106.726562 " clip-rule="nonzero"/></clipPath><clipPath id="abd155af2e"><path d="M 0.601562 0.726562 L 251.398438 0.726562 L 251.398438 30.027344 L 0.601562 30.027344 Z M 0.601562 0.726562 " clip-rule="nonzero"/></clipPath><clipPath id="bc45beeea6"><rect x="0" width="252" y="0" height="31"/></clipPath><clipPath id="d37564ab57"><rect x="0" width="238" y="0" height="53"/></clipPath><clipPath id="98c8cef8b9"><path d="M 64.414062 34.796875 L 239.914062 34.796875 L 239.914062 85 L 64.414062 85 Z M 64.414062 34.796875 " clip-rule="nonzero"/></clipPath><clipPath id="f4ab2a0ec5"><path d="M 86 140 L 228 140 L 228 190.046875 L 86 190.046875 Z M 86 140 " clip-rule="nonzero"/></clipPath><clipPath id="061dd1cbee"><path d="M 0.441406 3 L 10 3 L 10 14 L 0.441406 14 Z M 0.441406 3 " clip-rule="nonzero"/></clipPath><clipPath id="e91165b811"><rect x="0" width="181" y="0" height="18"/></clipPath></defs><g clip-path="url(#ea1be7cd06)"><g transform="matrix(1, 0, 0, 1, 24, 106)"><g clip-path="url(#bc45beeea6)"><g clip-path="url(#abd155af2e)"><path fill="#ffffff" d="M 0.601562 0.726562 L 251.363281 0.726562 L 251.363281 30.027344 L 0.601562 30.027344 Z M 0.601562 0.726562 " fill-opacity="1" fill-rule="nonzero"/></g></g></g></g><g transform="matrix(1, 0, 0, 1, 33, 76)"><g clip-path="url(#d37564ab57)"><g fill="#2d3454" fill-opacity="1"><g transform="translate(1.045425, 42.15663)"><g><path d="M 3.140625 -29.1875 L 16.28125 -29.1875 C 20.175781 -29.1875 22.992188 -28.710938 24.734375 -27.765625 C 26.472656 -26.828125 27.34375 -25.25 27.34375 -23.03125 L 27.34375 -17.890625 C 27.34375 -16.179688 26.734375 -14.835938 25.515625 -13.859375 C 24.304688 -12.890625 22.695312 -12.269531 20.6875 -12 L 29.140625 0 L 21.046875 0 L 13.40625 -11.46875 L 10.15625 -11.46875 L 10.15625 0 L 3.140625 0 Z M 16.1875 -16.09375 C 17.832031 -16.09375 18.953125 -16.3125 19.546875 -16.75 C 20.148438 -17.1875 20.453125 -18.035156 20.453125 -19.296875 L 20.453125 -21.359375 C 20.453125 -22.441406 20.128906 -23.179688 19.484375 -23.578125 C 18.847656 -23.984375 17.75 -24.1875 16.1875 -24.1875 L 10.15625 -24.1875 L 10.15625 -16.09375 Z M 16.1875 -16.09375 "/></g></g></g><g fill="#2d3454" fill-opacity="1"><g transform="translate(31.08576, 42.15663)"><g><path d="M 15.6875 0.453125 C 7.269531 0.453125 3.0625 -2.363281 3.0625 -8 L 3.0625 -29.1875 L 10.078125 -29.1875 L 10.078125 -8 C 10.078125 -6.6875 10.503906 -5.78125 11.359375 -5.28125 C 12.210938 -4.789062 13.6875 -4.546875 15.78125 -4.546875 C 17.851562 -4.546875 19.300781 -4.789062 20.125 -5.28125 C 20.945312 -5.78125 21.359375 -6.6875 21.359375 -8 L 21.359375 -29.1875 L 28.375 -29.1875 L 28.375 -8 C 28.375 -2.363281 24.144531 0.453125 15.6875 0.453125 Z M 15.6875 0.453125 "/></g></g></g><g fill="#2d3454" fill-opacity="1"><g transform="translate(62.520179, 42.15663)"><g><path d="M 17.046875 0.453125 C 15.367188 0.453125 13.882812 0.375 12.59375 0.21875 C 11.300781 0.0703125 10.023438 -0.179688 8.765625 -0.546875 C 7.421875 -0.898438 6.3125 -1.382812 5.4375 -2 C 4.570312 -2.613281 3.867188 -3.414062 3.328125 -4.40625 C 2.785156 -5.457031 2.515625 -6.65625 2.515625 -8 L 2.515625 -20.140625 C 2.515625 -21.609375 2.8125 -22.9375 3.40625 -24.125 C 4.007812 -25.3125 4.820312 -26.25 5.84375 -26.9375 C 6.800781 -27.5625 7.945312 -28.097656 9.28125 -28.546875 C 10.613281 -29.003906 11.925781 -29.304688 13.21875 -29.453125 C 14.300781 -29.578125 15.609375 -29.640625 17.140625 -29.640625 C 21.273438 -29.640625 25.226562 -29.320312 29 -28.6875 L 29 -23.390625 C 25.519531 -24.222656 21.566406 -24.640625 17.140625 -24.640625 C 12.066406 -24.640625 9.53125 -23.171875 9.53125 -20.234375 L 9.53125 -8.5 C 9.53125 -7.0625 10.210938 -6.039062 11.578125 -5.4375 C 12.941406 -4.84375 15.003906 -4.546875 17.765625 -4.546875 C 19.234375 -4.546875 20.804688 -4.769531 22.484375 -5.21875 L 22.484375 -12 L 17.71875 -12 L 17.71875 -16.59375 L 29.1875 -16.59375 L 29.1875 -1.4375 C 27.6875 -0.894531 25.773438 -0.441406 23.453125 -0.078125 C 21.128906 0.273438 18.992188 0.453125 17.046875 0.453125 Z M 17.046875 0.453125 "/></g></g></g><g fill="#2d3454" fill-opacity="1"><g transform="translate(94.224422, 42.15663)"><g><path d="M 12.59375 0.453125 C 9.800781 0.453125 6.351562 0.179688 2.25 -0.359375 L 2.25 -5.71875 C 7.34375 -4.9375 10.820312 -4.546875 12.6875 -4.546875 C 16.582031 -4.546875 18.53125 -5.550781 18.53125 -7.5625 L 18.53125 -9.4375 C 18.53125 -10.394531 18.25 -11.128906 17.6875 -11.640625 C 17.132812 -12.148438 16.140625 -12.40625 14.703125 -12.40625 L 11.28125 -12.40625 C 4.863281 -12.40625 1.65625 -14.957031 1.65625 -20.0625 L 1.65625 -22.21875 C 1.65625 -24.757812 2.71875 -26.628906 4.84375 -27.828125 C 6.976562 -29.035156 10.351562 -29.640625 14.96875 -29.640625 C 17.375 -29.640625 20.421875 -29.441406 24.109375 -29.046875 L 24.109375 -23.828125 C 19.578125 -24.367188 16.457031 -24.640625 14.75 -24.640625 C 12.382812 -24.640625 10.796875 -24.445312 9.984375 -24.0625 C 9.109375 -23.632812 8.671875 -22.972656 8.671875 -22.078125 L 8.671875 -20.015625 C 8.671875 -18.484375 9.960938 -17.71875 12.546875 -17.71875 L 16.046875 -17.71875 C 19.378906 -17.71875 21.796875 -17.101562 23.296875 -15.875 C 24.796875 -14.644531 25.546875 -12.769531 25.546875 -10.25 L 25.546875 -8.3125 C 25.546875 -4.84375 24.300781 -2.492188 21.8125 -1.265625 C 20.613281 -0.628906 19.285156 -0.1875 17.828125 0.0625 C 16.378906 0.320312 14.632812 0.453125 12.59375 0.453125 Z M 12.59375 0.453125 "/></g></g></g><g fill="#2d3454" fill-opacity="1"><g transform="translate(121.476579, 42.15663)"><g><path d="M 3.140625 -29.1875 L 25.40625 -29.1875 L 25.40625 -24.1875 L 10.15625 -24.1875 L 10.15625 -17.5 L 23.921875 -17.5 L 23.921875 -12.5 L 10.15625 -12.5 L 10.15625 -4.984375 L 25.859375 -4.984375 L 25.859375 0 L 3.140625 0 Z M 3.140625 -29.1875 "/></g></g></g><g fill="#2d3454" fill-opacity="1"><g transform="translate(148.908629, 42.15663)"><g><path d="M 3.140625 -29.1875 L 10.25 -29.1875 L 24.375 -9.265625 L 24.375 -29.1875 L 30.625 -29.1875 L 30.625 0 L 23.515625 0 L 9.40625 -20.234375 L 9.40625 0 L 3.140625 0 Z M 3.140625 -29.1875 "/></g></g></g><g fill="#2d3454" fill-opacity="1"><g transform="translate(182.681516, 42.15663)"><g><path d="M 12.59375 0.453125 C 9.800781 0.453125 6.351562 0.179688 2.25 -0.359375 L 2.25 -5.71875 C 7.34375 -4.9375 10.820312 -4.546875 12.6875 -4.546875 C 16.582031 -4.546875 18.53125 -5.550781 18.53125 -7.5625 L 18.53125 -9.4375 C 18.53125 -10.394531 18.25 -11.128906 17.6875 -11.640625 C 17.132812 -12.148438 16.140625 -12.40625 14.703125 -12.40625 L 11.28125 -12.40625 C 4.863281 -12.40625 1.65625 -14.957031 1.65625 -20.0625 L 1.65625 -22.21875 C 1.65625 -24.757812 2.71875 -26.628906 4.84375 -27.828125 C 6.976562 -29.035156 10.351562 -29.640625 14.96875 -29.640625 C 17.375 -29.640625 20.421875 -29.441406 24.109375 -29.046875 L 24.109375 -23.828125 C 19.578125 -24.367188 16.457031 -24.640625 14.75 -24.640625 C 12.382812 -24.640625 10.796875 -24.445312 9.984375 -24.0625 C 9.109375 -23.632812 8.671875 -22.972656 8.671875 -22.078125 L 8.671875 -20.015625 C 8.671875 -18.484375 9.960938 -17.71875 12.546875 -17.71875 L 16.046875 -17.71875 C 19.378906 -17.71875 21.796875 -17.101562 23.296875 -15.875 C 24.796875 -14.644531 25.546875 -12.769531 25.546875 -10.25 L 25.546875 -8.3125 C 25.546875 -4.84375 24.300781 -2.492188 21.8125 -1.265625 C 20.613281 -0.628906 19.285156 -0.1875 17.828125 0.0625 C 16.378906 0.320312 14.632812 0.453125 12.59375 0.453125 Z M 12.59375 0.453125 "/></g></g></g><g fill="#2d3454" fill-opacity="1"><g transform="translate(209.933678, 42.15663)"><g><path d="M 3.140625 -29.1875 L 25.40625 -29.1875 L 25.40625 -24.1875 L 10.15625 -24.1875 L 10.15625 -17.5 L 23.921875 -17.5 L 23.921875 -12.5 L 10.15625 -12.5 L 10.15625 -4.984375 L 25.859375 -4.984375 L 25.859375 0 L 3.140625 0 Z M 3.140625 -29.1875 "/></g></g></g></g></g><g clip-path="url(#98c8cef8b9)"><path fill="#2d3454" d="M 96.339844 84.488281 C 96.109375 81.472656 95.949219 78.398438 95.875 75.273438 C 122.917969 68.238281 144.027344 55.289062 152.203125 49.789062 C 160.378906 55.289062 181.488281 68.234375 208.535156 75.273438 C 208.457031 78.398438 208.300781 81.472656 208.066406 84.488281 L 239.972656 84.488281 L 220.410156 81.53125 C 220.617188 77.976562 220.730469 74.308594 220.730469 70.523438 L 220.730469 65.683594 L 216.007812 64.609375 C 181.976562 56.867188 156.097656 37.71875 155.84375 37.527344 L 152.203125 34.796875 L 148.5625 37.527344 C 148.308594 37.71875 122.546875 56.839844 88.402344 64.609375 L 83.683594 65.683594 L 83.683594 70.523438 C 83.683594 74.285156 83.792969 77.929688 84 81.464844 L 64.445312 84.488281 Z M 96.339844 84.488281 " fill-opacity="1" fill-rule="nonzero"/></g><g clip-path="url(#f4ab2a0ec5)"><path fill="#2d3454" d="M 191.359375 140.410156 C 187.894531 146.1875 183.910156 151.5625 179.40625 156.527344 C 168.164062 168.917969 156.773438 175.027344 152.203125 177.15625 C 147.632812 175.027344 136.242188 168.914062 125 156.527344 C 120.496094 151.5625 116.515625 146.183594 113.046875 140.410156 L 86.5 140.410156 L 100.835938 143.347656 C 105.835938 152.386719 111.34375 159.601562 116.511719 165.222656 C 132.9375 183.09375 149.441406 189.207031 150.140625 189.457031 L 152.207031 190.207031 L 154.273438 189.457031 C 154.964844 189.207031 171.46875 183.089844 187.902344 165.222656 C 192.871094 159.816406 198.152344 152.9375 203 144.378906 L 227.339844 140.410156 Z M 191.359375 140.410156 " fill-opacity="1" fill-rule="nonzero"/></g><path fill="#2d3454" d="M 119.605469 74.933594 C 132.613281 69.984375 152.953125 58.265625 152.953125 58.265625 C 152.953125 58.265625 173.960938 72.398438 193.753906 78.363281 C 177.09375 76.679688 153.578125 63.515625 153.578125 63.515625 C 153.578125 63.515625 134.933594 72.964844 119.605469 74.933594 Z M 119.605469 74.933594 " fill-opacity="1" fill-rule="nonzero"/><path fill="#2d3454" d="M 124.796875 146.257812 C 132.007812 161.480469 151.3125 169.695312 151.3125 169.695312 C 151.3125 169.695312 171.863281 161.648438 178.980469 147.738281 C 169.835938 157.367188 150.753906 165.3125 150.753906 165.3125 C 150.753906 165.3125 135.863281 159.261719 124.796875 146.257812 Z M 124.796875 146.257812 " fill-opacity="1" fill-rule="nonzero"/><g transform="matrix(1, 0, 0, 1, 61, 121)"><g clip-path="url(#e91165b811)"><g clip-path="url(#061dd1cbee)"><g fill="#898c94" fill-opacity="1"><g transform="translate(0.542683, 13.536201)"><g><path d="M 9.296875 0 L 5.445312 -9.554688 L 3.96875 -9.554688 L 0.128906 0 L 1.445312 0 L 2.292969 -2.121094 L 7.132812 -2.121094 L 7.980469 0 Z M 6.777344 -3.179688 L 2.636719 -3.179688 L 4.714844 -8.496094 Z M 6.777344 -3.179688 "/></g></g></g></g><g fill="#898c94" fill-opacity="1"><g transform="translate(9.966202, 13.536201)"><g><path d="M 2.304688 0 L 2.304688 -9.554688 L 1.117188 -9.554688 L 1.117188 0 Z M 2.304688 0 "/></g></g></g><g fill="#898c94" fill-opacity="1"><g transform="translate(13.38903, 13.536201)"><g/></g></g><g fill="#898c94" fill-opacity="1"><g transform="translate(17.083961, 13.536201)"><g><path d="M 3.867188 -2.992188 L 3.867188 -3.941406 L 0.429688 -3.941406 L 0.429688 -2.992188 Z M 3.867188 -2.992188 "/></g></g></g><g fill="#898c94" fill-opacity="1"><g transform="translate(21.380393, 13.536201)"><g/></g></g><g fill="#898c94" fill-opacity="1"><g transform="translate(25.075324, 13.536201)"><g><path d="M 2.304688 0 L 2.304688 -3.796875 L 4.957031 -3.796875 C 6.847656 -3.796875 7.949219 -5.113281 7.949219 -6.675781 C 7.949219 -8.238281 6.875 -9.554688 4.957031 -9.554688 L 1.117188 -9.554688 L 1.117188 0 Z M 6.71875 -6.675781 C 6.71875 -5.601562 5.945312 -4.855469 4.8125 -4.855469 L 2.304688 -4.855469 L 2.304688 -8.496094 L 4.8125 -8.496094 C 5.945312 -8.496094 6.71875 -7.75 6.71875 -6.675781 Z M 6.71875 -6.675781 "/></g></g></g><g fill="#898c94" fill-opacity="1"><g transform="translate(33.29579, 13.536201)"><g><path d="M 4.097656 0.171875 C 6.203125 0.171875 7.519531 -1.460938 7.519531 -3.464844 C 7.519531 -5.472656 6.203125 -7.089844 4.097656 -7.089844 C 1.992188 -7.089844 0.671875 -5.472656 0.671875 -3.464844 C 0.671875 -1.460938 1.992188 0.171875 4.097656 0.171875 Z M 4.097656 -0.789062 C 2.621094 -0.789062 1.789062 -2.046875 1.789062 -3.464844 C 1.789062 -4.871094 2.621094 -6.132812 4.097656 -6.132812 C 5.574219 -6.132812 6.390625 -4.871094 6.390625 -3.464844 C 6.390625 -2.046875 5.574219 -0.789062 4.097656 -0.789062 Z M 4.097656 -0.789062 "/></g></g></g><g fill="#898c94" fill-opacity="1"><g transform="translate(41.487666, 13.536201)"><g><path d="M 8.136719 0 L 10.34375 -6.917969 L 9.226562 -6.917969 L 7.535156 -1.402344 L 5.714844 -6.917969 L 4.800781 -6.917969 L 2.980469 -1.402344 L 1.289062 -6.917969 L 0.171875 -6.917969 L 2.378906 0 L 3.453125 0 L 5.257812 -5.558594 L 7.0625 0 Z M 8.136719 0 "/></g></g></g><g fill="#898c94" fill-opacity="1"><g transform="translate(51.999613, 13.536201)"><g><path d="M 0.671875 -3.464844 C 0.671875 -1.304688 2.148438 0.171875 4.199219 0.171875 C 5.328125 0.171875 6.261719 -0.199219 6.949219 -0.886719 L 6.433594 -1.589844 C 5.886719 -1.03125 5.085938 -0.714844 4.296875 -0.714844 C 2.808594 -0.714844 1.890625 -1.804688 1.804688 -3.109375 L 7.40625 -3.109375 L 7.40625 -3.378906 C 7.40625 -5.457031 6.175781 -7.089844 4.082031 -7.089844 C 2.105469 -7.089844 0.671875 -5.472656 0.671875 -3.464844 Z M 4.070312 -6.203125 C 5.644531 -6.203125 6.332031 -4.929688 6.347656 -3.898438 L 1.804688 -3.898438 C 1.863281 -4.957031 2.59375 -6.203125 4.070312 -6.203125 Z M 4.070312 -6.203125 "/></g></g></g><g fill="#898c94" fill-opacity="1"><g transform="translate(60.062584, 13.536201)"><g><path d="M 2.148438 0 L 2.148438 -4.898438 C 2.464844 -5.457031 3.367188 -6.003906 4.027344 -6.003906 C 4.199219 -6.003906 4.328125 -5.988281 4.457031 -5.960938 L 4.457031 -7.0625 C 3.507812 -7.0625 2.707031 -6.53125 2.148438 -5.800781 L 2.148438 -6.917969 L 1.074219 -6.917969 L 1.074219 0 Z M 2.148438 0 "/></g></g></g><g fill="#898c94" fill-opacity="1"><g transform="translate(64.788664, 13.536201)"><g><path d="M 0.671875 -3.464844 C 0.671875 -1.304688 2.148438 0.171875 4.199219 0.171875 C 5.328125 0.171875 6.261719 -0.199219 6.949219 -0.886719 L 6.433594 -1.589844 C 5.886719 -1.03125 5.085938 -0.714844 4.296875 -0.714844 C 2.808594 -0.714844 1.890625 -1.804688 1.804688 -3.109375 L 7.40625 -3.109375 L 7.40625 -3.378906 C 7.40625 -5.457031 6.175781 -7.089844 4.082031 -7.089844 C 2.105469 -7.089844 0.671875 -5.472656 0.671875 -3.464844 Z M 4.070312 -6.203125 C 5.644531 -6.203125 6.332031 -4.929688 6.347656 -3.898438 L 1.804688 -3.898438 C 1.863281 -4.957031 2.59375 -6.203125 4.070312 -6.203125 Z M 4.070312 -6.203125 "/></g></g></g><g fill="#898c94" fill-opacity="1"><g transform="translate(72.851635, 13.536201)"><g><path d="M 7.164062 0 L 7.164062 -9.554688 L 6.089844 -9.554688 L 6.089844 -5.875 C 5.53125 -6.632812 4.683594 -7.089844 3.753906 -7.089844 C 1.933594 -7.089844 0.671875 -5.660156 0.671875 -3.453125 C 0.671875 -1.203125 1.949219 0.171875 3.753906 0.171875 C 4.726562 0.171875 5.574219 -0.328125 6.089844 -1.03125 L 6.089844 0 Z M 6.089844 -1.875 C 5.703125 -1.273438 4.871094 -0.789062 4.011719 -0.789062 C 2.621094 -0.789062 1.789062 -1.917969 1.789062 -3.453125 C 1.789062 -4.984375 2.621094 -6.132812 4.011719 -6.132812 C 4.871094 -6.132812 5.703125 -5.617188 6.089844 -5.015625 Z M 6.089844 -1.875 "/></g></g></g><g fill="#898c94" fill-opacity="1"><g transform="translate(81.086462, 13.536201)"><g/></g></g><g fill="#898c94" fill-opacity="1"><g transform="translate(84.781393, 13.536201)"><g><path d="M 9.710938 0 L 12.433594 -9.554688 L 11.117188 -9.554688 L 9.011719 -1.589844 L 6.820312 -9.554688 L 5.832031 -9.554688 L 3.636719 -1.589844 L 1.519531 -9.554688 L 0.199219 -9.554688 L 2.921875 0 L 4.210938 0 L 6.316406 -7.707031 L 8.421875 0 Z M 9.710938 0 "/></g></g></g><g fill="#898c94" fill-opacity="1"><g transform="translate(96.85422, 13.536201)"><g><path d="M 6.476562 0 L 6.476562 -4.757812 C 6.476562 -6.433594 5.257812 -7.089844 3.796875 -7.089844 C 2.664062 -7.089844 1.777344 -6.71875 1.03125 -5.945312 L 1.53125 -5.199219 C 2.148438 -5.859375 2.820312 -6.160156 3.652344 -6.160156 C 4.65625 -6.160156 5.402344 -5.628906 5.402344 -4.699219 L 5.402344 -3.453125 C 4.84375 -4.097656 4.054688 -4.398438 3.109375 -4.398438 C 1.933594 -4.398438 0.6875 -3.667969 0.6875 -2.121094 C 0.6875 -0.617188 1.933594 0.171875 3.109375 0.171875 C 4.039062 0.171875 4.828125 -0.15625 5.402344 -0.789062 L 5.402344 0 Z M 5.402344 -1.460938 C 4.984375 -0.886719 4.253906 -0.601562 3.496094 -0.601562 C 2.492188 -0.601562 1.789062 -1.230469 1.789062 -2.105469 C 1.789062 -2.992188 2.492188 -3.625 3.496094 -3.625 C 4.253906 -3.625 4.984375 -3.335938 5.402344 -2.765625 Z M 5.402344 -1.460938 "/></g></g></g><g fill="#898c94" fill-opacity="1"><g transform="translate(104.401625, 13.536201)"><g><path d="M 2.148438 0 L 2.148438 -9.554688 L 1.074219 -9.554688 L 1.074219 0 Z M 2.148438 0 "/></g></g></g><g fill="#898c94" fill-opacity="1"><g transform="translate(107.623958, 13.536201)"><g><path d="M 2.148438 0 L 2.148438 -9.554688 L 1.074219 -9.554688 L 1.074219 0 Z M 2.148438 0 "/></g></g></g><g fill="#898c94" fill-opacity="1"><g transform="translate(110.846291, 13.536201)"><g><path d="M 0.671875 -3.464844 C 0.671875 -1.304688 2.148438 0.171875 4.199219 0.171875 C 5.328125 0.171875 6.261719 -0.199219 6.949219 -0.886719 L 6.433594 -1.589844 C 5.886719 -1.03125 5.085938 -0.714844 4.296875 -0.714844 C 2.808594 -0.714844 1.890625 -1.804688 1.804688 -3.109375 L 7.40625 -3.109375 L 7.40625 -3.378906 C 7.40625 -5.457031 6.175781 -7.089844 4.082031 -7.089844 C 2.105469 -7.089844 0.671875 -5.472656 0.671875 -3.464844 Z M 4.070312 -6.203125 C 5.644531 -6.203125 6.332031 -4.929688 6.347656 -3.898438 L 1.804688 -3.898438 C 1.863281 -4.957031 2.59375 -6.203125 4.070312 -6.203125 Z M 4.070312 -6.203125 "/></g></g></g><g fill="#898c94" fill-opacity="1"><g transform="translate(118.909262, 13.536201)"><g><path d="M 2.820312 0.171875 C 3.453125 0.171875 3.839844 -0.015625 4.113281 -0.273438 L 3.796875 -1.074219 C 3.652344 -0.917969 3.367188 -0.789062 3.066406 -0.789062 C 2.59375 -0.789062 2.363281 -1.160156 2.363281 -1.675781 L 2.363281 -5.972656 L 3.769531 -5.972656 L 3.769531 -6.917969 L 2.363281 -6.917969 L 2.363281 -8.808594 L 1.289062 -8.808594 L 1.289062 -6.917969 L 0.144531 -6.917969 L 0.144531 -5.972656 L 1.289062 -5.972656 L 1.289062 -1.445312 C 1.289062 -0.414062 1.804688 0.171875 2.820312 0.171875 Z M 2.820312 0.171875 "/></g></g></g><g fill="#898c94" fill-opacity="1"><g transform="translate(123.119776, 13.536201)"><g/></g></g><g fill="#898c94" fill-opacity="1"><g transform="translate(126.814707, 13.536201)"><g><path d="M 0.542969 -1.347656 C 1.332031 -0.457031 2.550781 0.171875 4.210938 0.171875 C 6.789062 0.171875 7.734375 -1.246094 7.734375 -2.636719 C 7.734375 -4.640625 5.960938 -5.128906 4.398438 -5.542969 C 3.179688 -5.875 2.078125 -6.160156 2.078125 -7.121094 C 2.078125 -8.023438 2.894531 -8.636719 4.039062 -8.636719 C 5.085938 -8.636719 6.089844 -8.28125 6.804688 -7.492188 L 7.519531 -8.367188 C 6.71875 -9.210938 5.585938 -9.699219 4.125 -9.699219 C 2.25 -9.699219 0.84375 -8.625 0.84375 -7.046875 C 0.84375 -5.171875 2.550781 -4.742188 4.082031 -4.339844 C 5.34375 -3.996094 6.503906 -3.679688 6.503906 -2.535156 C 6.503906 -1.804688 5.960938 -0.886719 4.253906 -0.886719 C 2.90625 -0.886719 1.875 -1.546875 1.246094 -2.25 Z M 0.542969 -1.347656 "/></g></g></g><g fill="#898c94" fill-opacity="1"><g transform="translate(135.207077, 13.536201)"><g><path d="M 0.671875 -3.464844 C 0.671875 -1.304688 2.148438 0.171875 4.199219 0.171875 C 5.328125 0.171875 6.261719 -0.199219 6.949219 -0.886719 L 6.433594 -1.589844 C 5.886719 -1.03125 5.085938 -0.714844 4.296875 -0.714844 C 2.808594 -0.714844 1.890625 -1.804688 1.804688 -3.109375 L 7.40625 -3.109375 L 7.40625 -3.378906 C 7.40625 -5.457031 6.175781 -7.089844 4.082031 -7.089844 C 2.105469 -7.089844 0.671875 -5.472656 0.671875 -3.464844 Z M 4.070312 -6.203125 C 5.644531 -6.203125 6.332031 -4.929688 6.347656 -3.898438 L 1.804688 -3.898438 C 1.863281 -4.957031 2.59375 -6.203125 4.070312 -6.203125 Z M 4.070312 -6.203125 "/></g></g></g><g fill="#898c94" fill-opacity="1"><g transform="translate(143.270049, 13.536201)"><g><path d="M 0.671875 -3.464844 C 0.671875 -1.402344 2.0625 0.171875 4.125 0.171875 C 5.386719 0.171875 6.132812 -0.34375 6.660156 -1.03125 L 5.945312 -1.691406 C 5.488281 -1.074219 4.898438 -0.789062 4.183594 -0.789062 C 2.707031 -0.789062 1.789062 -1.933594 1.789062 -3.464844 C 1.789062 -5 2.707031 -6.132812 4.183594 -6.132812 C 4.898438 -6.132812 5.488281 -5.859375 5.945312 -5.230469 L 6.660156 -5.886719 C 6.132812 -6.574219 5.386719 -7.089844 4.125 -7.089844 C 2.0625 -7.089844 0.671875 -5.515625 0.671875 -3.464844 Z M 0.671875 -3.464844 "/></g></g></g><g fill="#898c94" fill-opacity="1"><g transform="translate(150.359168, 13.536201)"><g><path d="M 6.820312 0 L 6.820312 -6.917969 L 5.746094 -6.917969 L 5.746094 -1.832031 C 5.34375 -1.273438 4.542969 -0.789062 3.695312 -0.789062 C 2.765625 -0.789062 2.148438 -1.144531 2.148438 -2.363281 L 2.148438 -6.917969 L 1.074219 -6.917969 L 1.074219 -2.035156 C 1.074219 -0.53125 1.832031 0.171875 3.28125 0.171875 C 4.3125 0.171875 5.214844 -0.371094 5.746094 -0.972656 L 5.746094 0 Z M 6.820312 0 "/></g></g></g><g fill="#898c94" fill-opacity="1"><g transform="translate(158.250284, 13.536201)"><g><path d="M 2.148438 0 L 2.148438 -4.898438 C 2.464844 -5.457031 3.367188 -6.003906 4.027344 -6.003906 C 4.199219 -6.003906 4.328125 -5.988281 4.457031 -5.960938 L 4.457031 -7.0625 C 3.507812 -7.0625 2.707031 -6.53125 2.148438 -5.800781 L 2.148438 -6.917969 L 1.074219 -6.917969 L 1.074219 0 Z M 2.148438 0 "/></g></g></g><g fill="#898c94" fill-opacity="1"><g transform="translate(162.976363, 13.536201)"><g><path d="M 1.605469 -8.078125 C 2.003906 -8.078125 2.335938 -8.410156 2.335938 -8.808594 C 2.335938 -9.210938 2.003906 -9.527344 1.605469 -9.527344 C 1.21875 -9.527344 0.886719 -9.210938 0.886719 -8.808594 C 0.886719 -8.410156 1.21875 -8.078125 1.605469 -8.078125 Z M 2.148438 0 L 2.148438 -6.917969 L 1.074219 -6.917969 L 1.074219 0 Z M 2.148438 0 "/></g></g></g><g fill="#898c94" fill-opacity="1"><g transform="translate(166.198696, 13.536201)"><g><path d="M 2.820312 0.171875 C 3.453125 0.171875 3.839844 -0.015625 4.113281 -0.273438 L 3.796875 -1.074219 C 3.652344 -0.917969 3.367188 -0.789062 3.066406 -0.789062 C 2.59375 -0.789062 2.363281 -1.160156 2.363281 -1.675781 L 2.363281 -5.972656 L 3.769531 -5.972656 L 3.769531 -6.917969 L 2.363281 -6.917969 L 2.363281 -8.808594 L 1.289062 -8.808594 L 1.289062 -6.917969 L 0.144531 -6.917969 L 0.144531 -5.972656 L 1.289062 -5.972656 L 1.289062 -1.445312 C 1.289062 -0.414062 1.804688 0.171875 2.820312 0.171875 Z M 2.820312 0.171875 "/></g></g></g><g fill="#898c94" fill-opacity="1"><g transform="translate(170.409209, 13.536201)"><g><path d="M 0.6875 2.707031 C 0.886719 2.765625 1.246094 2.808594 1.476562 2.808594 C 2.390625 2.792969 3.09375 2.40625 3.507812 1.402344 L 6.976562 -6.917969 L 5.800781 -6.917969 L 3.507812 -1.246094 L 1.203125 -6.917969 L 0.0429688 -6.917969 L 2.9375 0.0703125 L 2.476562 1.117188 C 2.234375 1.691406 1.917969 1.847656 1.445312 1.847656 C 1.273438 1.847656 1.015625 1.804688 0.859375 1.734375 Z M 0.6875 2.707031 "/></g></g></g></g></g></svg>